<?xml version="1.0" encoding="utf-8"?>
<svg version="1.1" xmlns:xlink="http://www.w3.org/1999/xlink" width="25px" height="22px" xmlns="http://www.w3.org/2000/svg">
  <g transform="matrix(1 0 0 1 -11 -790 )">
    <path d="M 17.822265625 2.828776041666666  C 16.171409970238095 2.165147569444443  14.397321428571427 1.8333333333333341  12.5 1.8333333333333341  C 10.602678571428571 1.8333333333333341  8.828590029761905 2.165147569444443  7.177734375 2.828776041666666  C 5.526878720238095 3.4924045138888884  4.215494791666667 4.3875868055555545  3.2435825892857144 5.514322916666666  C 2.271670386904762 6.641059027777775  1.7857142857142856 7.858506944444443  1.7857142857142856 9.166666666666666  C 1.7857142857142856 10.23611111111111  2.1182105654761907 11.255425347222223  2.783203125 12.224609375  C 3.4481956845238098 13.193793402777777  4.385230654761905 14.031684027777777  5.594308035714286 14.73828125  L 6.8080357142857135 15.454427083333332  L 6.431361607142858 16.829427083333336  C 6.208147321428571 17.698350694444446  5.882626488095238 18.51953125  5.454799107142857 19.29296875  C 6.868489583333334 18.69140625  8.147321428571429 17.875  9.291294642857142 16.84375  L 9.891183035714286 16.299479166666668  L 10.686383928571429 16.385416666666668  C 11.328125 16.461805555555554  11.93266369047619 16.5  12.5 16.5  C 14.397321428571427 16.5  16.171409970238095 16.168185763888886  17.822265625 15.504557291666668  C 19.473121279761905 14.840928819444441  20.784505208333336 13.945746527777777  21.756417410714285 12.819010416666668  C 22.728329613095237 11.692274305555554  23.214285714285715 10.47482638888889  23.214285714285715 9.166666666666666  C 23.214285714285715 7.858506944444443  22.728329613095237 6.641059027777775  21.756417410714285 5.514322916666666  C 20.784505208333336 4.3875868055555545  19.473121279761905 3.4924045138888884  17.822265625 2.828776041666666  Z M 23.325892857142858 4.561848958333334  C 24.441964285714285 5.9702690972222205  25 7.505208333333334  25 9.166666666666666  C 25 10.828125  24.441964285714285 12.363064236111109  23.325892857142858 13.771484375  C 22.209821428571427 15.179904513888886  20.693824404761905 16.292317708333332  18.777901785714285 17.108723958333336  C 16.861979166666668 17.925130208333336  14.769345238095239 18.333333333333336  12.5 18.333333333333336  C 11.848958333333334 18.333333333333336  11.174665178571429 18.29513888888889  10.477120535714286 18.21875  C 8.635602678571429 19.889756944444446  6.496465773809525 21.04513888888889  4.059709821428571 21.684895833333336  C 3.6039806547619055 21.81857638888889  3.0738467261904763 21.92361111111111  2.4693080357142856 22  L 2.3995535714285716 22  C 2.260044642857143 22  2.134486607142857 21.949869791666664  2.0228794642857144 21.849609375  C 1.9112723214285716 21.749348958333336  1.83686755952381 21.618055555555554  1.7996651785714284 21.455729166666664  L 1.7996651785714284 21.44140625  C 1.7717633928571432 21.403211805555557  1.769438244047619 21.345920138888893  1.7926897321428572 21.26953125  C 1.8159412202380956 21.19314236111111  1.8252418154761907 21.145399305555554  1.8205915178571428 21.126302083333336  C 1.8159412202380956 21.10720486111111  1.83686755952381 21.061848958333336  1.8833705357142856 20.990234375  L 1.9670758928571428 20.861328125  C 1.9670758928571428 20.861328125  1.9996279761904763 20.82074652777778  2.064732142857143 20.739583333333336  C 2.1298363095238098 20.65842013888889  2.1670386904761907 20.61545138888889  2.1763392857142856 20.610677083333336  C 2.2414434523809526 20.534288194444446  2.3856026785714284 20.36957465277778  2.6088169642857144 20.116536458333336  C 2.83203125 19.86349826388889  2.992466517857143 19.68207465277778  3.090122767857143 19.572265625  C 3.1877790178571432 19.46245659722222  3.331938244047619 19.27387152777778  3.522600446428571 19.006510416666664  C 3.713262648809524 18.739149305555554  3.864397321428571 18.49565972222222  3.9760044642857144 18.276041666666664  C 4.087611607142857 18.05642361111111  4.213169642857143 17.774739583333336  4.352678571428571 17.430989583333336  C 4.4921875 17.087239583333336  4.613095238095238 16.72439236111111  4.715401785714286 16.342447916666668  C 3.2552083333333335 15.492621527777777  2.1042596726190474 14.442274305555554  1.2625558035714286 13.19140625  C 0.4208519345238095 11.940538194444441  0 10.598958333333334  0 9.166666666666666  C 0 7.505208333333334  0.5580357142857143 5.9702690972222205  1.6741071428571428 4.561848958333334  C 2.790178571428572 3.153428819444443  4.306175595238095 2.041015625  6.222098214285714 1.224609375  C 8.138020833333334 0.408203125  10.230654761904763 0  12.5 0  C 14.769345238095239 0  16.861979166666668 0.408203125  18.777901785714285 1.224609375  C 20.693824404761905 2.041015625  22.209821428571427 3.153428819444443  23.325892857142858 4.561848958333334  Z " fill-rule="nonzero" fill="#000000" stroke="none" transform="matrix(1 0 0 1 11 790 )" />
  </g>
</svg>