<?xml version="1.0" encoding="utf-8"?>
<svg version="1.1" xmlns:xlink="http://www.w3.org/1999/xlink" width="27px" height="27px" xmlns="http://www.w3.org/2000/svg">
  <g transform="matrix(1 0 0 1 -8 -865 )">
    <path d="M 0.5418060200668896 21  L 26.45819397993311 21  L 26.984949832775918 25.930245535714285  C 27.015050167224082 26.21149553571429  26.934782608695652 26.46261160714286  26.744147157190636 26.68359375  C 26.553511705685622 26.89453125  26.312709030100336 27  26.02173913043478 27  L 0.9782608695652174 27  C 0.6872909698996656 27  0.44648829431438125 26.89453125  0.25585284280936454 26.68359375  C 0.06521739130434782 26.46261160714286  -0.015050167224080268 26.21149553571429  0.015050167224080268 25.930245535714285  L 0.5418060200668896 21  Z M 24.74247491638796 7.962890625  C 24.923076923076923 8.128627232142858  25.028428093645484 8.33203125  25.05852842809365 8.573102678571427  L 26.35284280936455 20  L 0.6471571906354515 20  L 1.9414715719063544 8.573102678571427  C 1.971571906354515 8.33203125  2.076923076923077 8.128627232142858  2.25752508361204 7.962890625  C 2.4381270903010033 7.7971540178571415  2.653846153846154 7.7142857142857135  2.9046822742474916 7.7142857142857135  L 6.757525083612041 7.7142857142857135  L 6.757525083612041 9.642857142857142  C 6.757525083612041 10.175223214285712  6.945652173913043 10.629743303571427  7.3219063545150505 11.006417410714286  C 7.698160535117056 11.383091517857142  8.15217391304348 11.571428571428573  8.683946488294314 11.571428571428573  C 9.215719063545151 11.571428571428573  9.669732441471572 11.383091517857142  10.045986622073578 11.006417410714286  C 10.422240802675585 10.629743303571427  10.610367892976589 10.175223214285712  10.610367892976589 9.642857142857142  L 10.610367892976589 7.7142857142857135  L 16.389632107023413 7.7142857142857135  L 16.389632107023413 9.642857142857142  C 16.389632107023413 10.175223214285712  16.577759197324415 10.629743303571427  16.954013377926422 11.006417410714286  C 17.330267558528426 11.383091517857142  17.78428093645485 11.571428571428573  18.316053511705686 11.571428571428573  C 18.847826086956523 11.571428571428573  19.301839464882942 11.383091517857142  19.67809364548495 11.006417410714286  C 20.054347826086957 10.629743303571427  20.24247491638796 10.175223214285712  20.24247491638796 9.642857142857142  L 20.24247491638796 7.7142857142857135  L 24.09531772575251 7.7142857142857135  C 24.346153846153847 7.7142857142857135  24.561872909698995 7.7971540178571415  24.74247491638796 7.962890625  Z M 17.58612040133779 1.6950334821428585  C 18.714882943143813 2.825055803571428  19.279264214046822 4.188616071428572  19.279264214046822 5.7857142857142865  L 19.279264214046822 9.642857142857142  C 19.279264214046822 9.904017857142856  19.183946488294314 10.13002232142857  18.9933110367893 10.320870535714286  C 18.802675585284284 10.511718749999998  18.57692307692308 10.607142857142858  18.316053511705686 10.607142857142858  C 18.055183946488295 10.607142857142858  17.82943143812709 10.511718749999998  17.63879598662207 10.320870535714286  C 17.44816053511706 10.13002232142857  17.35284280936455 9.904017857142856  17.35284280936455 9.642857142857142  L 17.35284280936455 5.7857142857142865  C 17.35284280936455 4.720982142857142  16.976588628762542 3.811941964285714  16.224080267558527 3.05859375  C 15.471571906354516 2.305245535714286  14.563545150501675 1.9285714285714277  13.5 1.9285714285714277  C 12.436454849498329 1.9285714285714277  11.528428093645484 2.305245535714286  10.775919732441471 3.05859375  C 10.023411371237458 3.811941964285714  9.647157190635452 4.720982142857142  9.647157190635452 5.7857142857142865  L 9.647157190635452 9.642857142857142  C 9.647157190635452 9.904017857142856  9.551839464882944 10.13002232142857  9.361204013377925 10.320870535714286  C 9.17056856187291 10.511718749999998  8.944816053511706 10.607142857142858  8.683946488294314 10.607142857142858  C 8.423076923076925 10.607142857142858  8.197324414715721 10.511718749999998  8.006688963210703 10.320870535714286  C 7.816053511705686 10.13002232142857  7.720735785953177 9.904017857142856  7.720735785953177 9.642857142857142  L 7.720735785953177 5.7857142857142865  C 7.720735785953177 4.188616071428572  8.285117056856187 2.825055803571428  9.413879598662207 1.6950334821428585  C 10.542642140468228 0.5650111607142861  11.904682274247492 0  13.5 0  C 15.095317725752508 0  16.457357859531772 0.5650111607142861  17.58612040133779 1.6950334821428585  Z " fill-rule="nonzero" fill="#000000" stroke="none" transform="matrix(1 0 0 1 8 865 )" />
  </g>
</svg>