<?xml version="1.0" encoding="utf-8"?>
<svg version="1.1" xmlns:xlink="http://www.w3.org/1999/xlink" width="27px" height="23px" xmlns="http://www.w3.org/2000/svg">
  <g transform="matrix(1 0 0 1 -8 -831 )">
    <path d="M 22.238839285714285 12.338541666666664  C 24.127232142857146 10.461805555555554  25.071428571428573 8.684895833333332  25.071428571428573 7.0078125  C 25.071428571428573 6.19921875  24.96344866071429 5.485460069444443  24.747488839285715 4.866536458333332  C 24.531529017857142 4.247612847222219  24.25530133928572 3.7559678819444433  23.918805803571427 3.3916015625  C 23.582310267857146 3.027235243055554  23.172991071428577 2.7302517361111107  22.690848214285715 2.5006510416666674  C 22.208705357142858 2.271050347222219  21.736607142857142 2.1163194444444433  21.274553571428573 2.0364583333333326  C 20.8125 1.9565972222222192  20.320312500000004 1.9166666666666674  19.797991071428573 1.9166666666666674  C 19.275669642857146 1.9166666666666674  18.713169642857142 2.0439453125  18.110491071428573 2.2985026041666674  C 17.5078125 2.5530598958333326  16.952845982142858 2.872504340277776  16.445591517857142 3.2568359375  C 15.938337053571432 3.641167534722219  15.50390625 4.000542534722219  15.142299107142858 4.3349609375  C 14.780691964285717 4.669379340277776  14.47935267857143 4.976345486111111  14.23828125 5.255859375  C 14.05747767857143 5.4754774305555545  13.81138392857143 5.585286458333332  13.5 5.585286458333332  C 13.188616071428571 5.585286458333332  12.942522321428571 5.4754774305555545  12.76171875 5.255859375  C 12.520647321428571 4.976345486111111  12.219308035714286 4.669379340277776  11.857700892857142 4.3349609375  C 11.49609375 4.000542534722219  11.061662946428573 3.641167534722219  10.554408482142858 3.2568359375  C 10.047154017857144 2.872504340277776  9.4921875 2.5530598958333326  8.889508928571429 2.2985026041666674  C 8.286830357142858 2.0439453125  7.7243303571428585 1.9166666666666674  7.202008928571429 1.9166666666666674  C 6.6796875 1.9166666666666674  6.187500000000001 1.9565972222222192  5.725446428571429 2.0364583333333326  C 5.263392857142858 2.1163194444444433  4.791294642857143 2.271050347222219  4.309151785714286 2.5006510416666674  C 3.8270089285714284 2.7302517361111107  3.417689732142857 3.027235243055554  3.0811941964285716 3.3916015625  C 2.744698660714286 3.7559678819444433  2.468470982142857 4.247612847222219  2.2525111607142856 4.866536458333332  C 2.036551339285715 5.485460069444443  1.9285714285714284 6.19921875  1.9285714285714284 7.0078125  C 1.9285714285714284 8.684895833333332  2.867745535714286 10.45681423611111  4.74609375 12.323567708333336  L 13.5 20.708984375  L 22.238839285714285 12.338541666666664  Z M 25.086495535714285 1.8567708333333326  C 26.36216517857143 3.094618055555554  27 4.811631944444443  27 7.0078125  C 27 9.213975694444443  25.849888392857142 11.460069444444443  23.549665178571427 13.74609375  L 14.162946428571427 22.73046875  C 13.982142857142858 22.91015625  13.761160714285715 23  13.5 23  C 13.238839285714286 23  13.017857142857144 22.91015625  12.837053571428571 22.73046875  L 3.4352678571428568 13.716145833333336  C 3.334821428571429 13.636284722222221  3.196707589285715 13.506510416666664  3.0209263392857144 13.326822916666664  C 2.8451450892857144 13.147135416666664  2.5664062500000004 12.820203993055557  2.1847098214285716 12.346028645833336  C 1.8030133928571428 11.871853298611109  1.4614955357142858 11.385199652777775  1.16015625 10.886067708333332  C 0.8588169642857142 10.38693576388889  0.5901227678571429 9.78298611111111  0.3540736607142857 9.07421875  C 0.11802455357142858 8.365451388888886  0 7.6766493055555545  0 7.0078125  C 0 4.811631944444443  0.6378348214285713 3.094618055555554  1.9135044642857142 1.8567708333333326  C 3.1891741071428577 0.6189236111111108  4.952008928571428 0  7.202008928571429 0  C 7.824776785714286 0  8.460100446428571 0.10731336805555414  9.107979910714286 0.3219401041666675  C 9.755859375 0.5365668402777758  10.358537946428571 0.8260633680555541  10.916015625 1.1904296875  C 11.47349330357143 1.5547960069444433  11.953125000000002 1.8967013888888866  12.354910714285714 2.2161458333333326  C 12.75669642857143 2.535590277777776  13.138392857142858 2.875  13.5 3.234375  C 13.861607142857142 2.875  14.243303571428573 2.535590277777776  14.645089285714286 2.2161458333333326  C 15.046875000000002 1.8967013888888866  15.526506696428573 1.5547960069444433  16.083984375 1.1904296875  C 16.641462053571427 0.8260633680555541  17.244140625 0.5365668402777758  17.892020089285715 0.3219401041666675  C 18.539899553571427 0.10731336805555414  19.175223214285715 0  19.797991071428573 0  C 22.047991071428573 0  23.810825892857146 0.6189236111111108  25.086495535714285 1.8567708333333326  Z " fill-rule="nonzero" fill="#000000" stroke="none" transform="matrix(1 0 0 1 8 831 )" />
  </g>
</svg>