<?xml version="1.0" encoding="utf-8"?>
<svg version="1.1" xmlns:xlink="http://www.w3.org/1999/xlink" width="16px" height="16px" xmlns="http://www.w3.org/2000/svg">
  <g transform="matrix(1 0 0 1 -311 -808 )">
    <path d="M 9.885416666666666 9.885416666666668  C 10.40625 9.364583333333332  10.666666666666666 8.73611111111111  10.666666666666666 8  C 10.666666666666666 7.2638888888888875  10.40625 6.635416666666666  9.885416666666666 6.114583333333334  C 9.364583333333334 5.59375  8.736111111111112 5.333333333333334  8 5.333333333333334  C 7.263888888888889 5.333333333333334  6.635416666666667 5.59375  6.114583333333333 6.114583333333334  C 5.59375 6.635416666666666  5.333333333333333 7.2638888888888875  5.333333333333333 8  C 5.333333333333333 8.73611111111111  5.59375 9.364583333333332  6.114583333333333 9.885416666666668  C 6.635416666666667 10.40625  7.263888888888889 10.666666666666668  8 10.666666666666668  C 8.736111111111112 10.666666666666668  9.364583333333334 10.40625  9.885416666666666 9.885416666666668  Z M 10.90625 5.09375  C 11.704861111111112 5.892361111111109  12.104166666666666 6.861111111111109  12.104166666666666 8  C 12.104166666666666 9.13888888888889  11.704861111111112 10.10763888888889  10.90625 10.90625  C 10.10763888888889 11.70486111111111  9.13888888888889 12.104166666666666  8 12.104166666666666  C 6.861111111111112 12.104166666666666  5.892361111111112 11.70486111111111  5.09375 10.90625  C 4.295138888888889 10.10763888888889  3.8958333333333335 9.13888888888889  3.8958333333333335 8  C 3.8958333333333335 6.861111111111109  4.295138888888889 5.892361111111109  5.09375 5.09375  C 5.892361111111112 4.2951388888888875  6.861111111111112 3.895833333333334  8 3.895833333333334  C 9.13888888888889 3.895833333333334  10.10763888888889 4.2951388888888875  10.90625 5.09375  Z M 12.947916666666666 3.052083333333334  C 13.135416666666666 3.239583333333334  13.229166666666666 3.465277777777777  13.229166666666666 3.729166666666666  C 13.229166666666666 3.9930555555555554  13.135416666666666 4.21875  12.947916666666666 4.40625  C 12.760416666666666 4.59375  12.534722222222223 4.6875  12.270833333333334 4.6875  C 12.006944444444445 4.6875  11.78125 4.59375  11.59375 4.40625  C 11.40625 4.21875  11.3125 3.9930555555555554  11.3125 3.729166666666666  C 11.3125 3.465277777777777  11.40625 3.239583333333334  11.59375 3.052083333333334  C 11.78125 2.864583333333334  12.006944444444445 2.770833333333334  12.270833333333334 2.770833333333334  C 12.534722222222223 2.770833333333334  12.760416666666666 2.864583333333334  12.947916666666666 3.052083333333334  Z M 8.796875 1.432291666666666  C 8.314236111111112 1.4357638888888875  8.048611111111112 1.4375  8 1.4375  C 7.951388888888889 1.4375  7.685763888888889 1.4357638888888875  7.203125 1.432291666666666  C 6.720486111111112 1.4288194444444429  6.354166666666667 1.4288194444444429  6.104166666666667 1.432291666666666  C 5.854166666666667 1.4357638888888875  5.519097222222222 1.4461805555555554  5.098958333333333 1.463541666666666  C 4.6788194444444455 1.4809027777777768  4.321180555555556 1.515625  4.026041666666667 1.567708333333334  C 3.730902777777778 1.619791666666666  3.4826388888888893 1.6840277777777768  3.28125 1.760416666666666  C 2.934027777777778 1.8993055555555554  2.6284722222222223 2.100694444444443  2.3645833333333335 2.364583333333334  C 2.1006944444444446 2.6284722222222214  1.8993055555555556 2.934027777777777  1.7604166666666667 3.28125  C 1.684027777777778 3.4826388888888875  1.6197916666666667 3.730902777777777  1.5677083333333333 4.026041666666666  C 1.515625 4.321180555555555  1.480902777777778 4.678819444444443  1.4635416666666667 5.098958333333334  C 1.4461805555555556 5.519097222222221  1.435763888888889 5.854166666666666  1.4322916666666667 6.104166666666666  C 1.4288194444444446 6.354166666666666  1.4288194444444446 6.720486111111109  1.4322916666666667 7.203125  C 1.435763888888889 7.6857638888888875  1.4375 7.9513888888888875  1.4375 8  C 1.4375 8.04861111111111  1.435763888888889 8.31423611111111  1.4322916666666667 8.796875  C 1.4288194444444446 9.27951388888889  1.4288194444444446 9.645833333333332  1.4322916666666667 9.895833333333332  C 1.435763888888889 10.145833333333332  1.4461805555555556 10.480902777777775  1.4635416666666667 10.901041666666668  C 1.480902777777778 11.321180555555554  1.515625 11.678819444444443  1.5677083333333333 11.973958333333332  C 1.6197916666666667 12.269097222222221  1.684027777777778 12.517361111111109  1.7604166666666667 12.71875  C 1.8993055555555556 13.065972222222221  2.1006944444444446 13.371527777777779  2.3645833333333335 13.635416666666666  C 2.6284722222222223 13.899305555555555  2.934027777777778 14.100694444444445  3.28125 14.239583333333334  C 3.4826388888888893 14.315972222222221  3.730902777777778 14.380208333333334  4.026041666666667 14.432291666666666  C 4.321180555555556 14.484375  4.6788194444444455 14.519097222222221  5.098958333333333 14.536458333333334  C 5.519097222222222 14.553819444444445  5.854166666666667 14.564236111111112  6.104166666666667 14.567708333333334  C 6.354166666666667 14.571180555555555  6.720486111111112 14.571180555555555  7.203125 14.567708333333334  C 7.685763888888889 14.564236111111112  7.951388888888889 14.5625  8 14.5625  C 8.048611111111112 14.5625  8.314236111111112 14.564236111111112  8.796875 14.567708333333334  C 9.27951388888889 14.571180555555555  9.645833333333334 14.571180555555555  9.895833333333334 14.567708333333334  C 10.145833333333334 14.564236111111112  10.480902777777779 14.553819444444445  10.901041666666666 14.536458333333334  C 11.321180555555557 14.519097222222221  11.678819444444445 14.484375  11.973958333333334 14.432291666666666  C 12.269097222222223 14.380208333333334  12.517361111111112 14.315972222222221  12.71875 14.239583333333334  C 13.065972222222223 14.100694444444445  13.371527777777779 13.899305555555555  13.635416666666666 13.635416666666666  C 13.899305555555557 13.371527777777779  14.100694444444445 13.065972222222221  14.239583333333334 12.71875  C 14.315972222222223 12.517361111111109  14.380208333333334 12.269097222222221  14.432291666666666 11.973958333333332  C 14.484375 11.678819444444443  14.519097222222223 11.321180555555554  14.536458333333334 10.901041666666668  C 14.553819444444445 10.480902777777775  14.564236111111112 10.145833333333332  14.567708333333334 9.895833333333332  C 14.571180555555557 9.645833333333332  14.571180555555557 9.27951388888889  14.567708333333334 8.796875  C 14.564236111111112 8.31423611111111  14.5625 8.04861111111111  14.5625 8  C 14.5625 7.9513888888888875  14.564236111111112 7.6857638888888875  14.567708333333334 7.203125  C 14.571180555555557 6.720486111111109  14.571180555555557 6.354166666666666  14.567708333333334 6.104166666666666  C 14.564236111111112 5.854166666666666  14.553819444444445 5.519097222222221  14.536458333333334 5.098958333333334  C 14.519097222222223 4.678819444444443  14.484375 4.321180555555555  14.432291666666666 4.026041666666666  C 14.380208333333334 3.730902777777777  14.315972222222223 3.4826388888888875  14.239583333333334 3.28125  C 14.100694444444445 2.934027777777777  13.899305555555557 2.6284722222222214  13.635416666666666 2.364583333333334  C 13.371527777777779 2.100694444444443  13.065972222222223 1.8993055555555554  12.71875 1.760416666666666  C 12.517361111111112 1.6840277777777768  12.269097222222223 1.619791666666666  11.973958333333334 1.567708333333334  C 11.678819444444445 1.515625  11.321180555555557 1.4809027777777768  10.901041666666666 1.463541666666666  C 10.480902777777779 1.4461805555555554  10.145833333333334 1.4357638888888875  9.895833333333334 1.432291666666666  C 9.645833333333334 1.4288194444444429  9.27951388888889 1.4288194444444429  8.796875 1.432291666666666  Z M 15.947916666666666 4.697916666666666  C 15.982638888888888 5.309027777777777  16 6.409722222222221  16 8  C 16 9.590277777777779  15.982638888888888 10.690972222222221  15.947916666666666 11.302083333333332  C 15.878472222222223 12.746527777777779  15.447916666666666 13.864583333333334  14.65625 14.65625  C 13.864583333333334 15.447916666666666  12.746527777777779 15.878472222222221  11.302083333333334 15.947916666666666  C 10.690972222222223 15.982638888888888  9.590277777777779 16  8 16  C 6.409722222222222 16  5.309027777777778 15.982638888888888  4.697916666666667 15.947916666666666  C 3.2534722222222228 15.878472222222221  2.135416666666667 15.447916666666666  1.34375 14.65625  C 0.5520833333333334 13.864583333333334  0.12152777777777779 12.746527777777779  0.052083333333333336 11.302083333333332  C 0.01736111111111111 10.690972222222221  0 9.590277777777779  0 8  C 0 6.409722222222221  0.01736111111111111 5.309027777777777  0.052083333333333336 4.697916666666666  C 0.12152777777777779 3.2534722222222214  0.5520833333333334 2.135416666666666  1.34375 1.34375  C 2.135416666666667 0.5520833333333339  3.2534722222222228 0.12152777777777679  4.697916666666667 0.052083333333333925  C 5.309027777777778 0.01736111111110894  6.409722222222222 0  8 0  C 9.590277777777779 0  10.690972222222223 0.01736111111110894  11.302083333333334 0.052083333333333925  C 12.746527777777779 0.12152777777777679  13.864583333333334 0.5520833333333339  14.65625 1.34375  C 15.447916666666666 2.135416666666666  15.878472222222223 3.2534722222222214  15.947916666666666 4.697916666666666  Z " fill-rule="nonzero" fill="#bd81f3" stroke="none" transform="matrix(1 0 0 1 311 808 )" />
  </g>
</svg>