<?xml version="1.0" encoding="utf-8"?>
<!-- Generator: Adobe Illustrator 26.3.1, SVG Export Plug-In . SVG Version: 6.00 Build 0)  -->
<svg version="1.1" id="Camada_1" xmlns="http://www.w3.org/2000/svg" xmlns:xlink="http://www.w3.org/1999/xlink" x="0px" y="0px"
	 viewBox="0 0 100 100" style="enable-background:new 0 0 100 100;" xml:space="preserve">
<style type="text/css">
	.st0{fill:#BD81F3;}
</style>
<g>
	<g>
		<path class="st0" d="M52.65,40.4c-0.26,0.61-0.62,1.14-1.08,1.6c-0.46,0.46-0.99,0.82-1.6,1.08c-0.61,0.26-1.26,0.39-1.96,0.39
			h-1.46c-0.69,0-1.35-0.13-1.96-0.39c-0.61-0.26-1.15-0.62-1.61-1.08s-0.82-0.99-1.08-1.6c-0.26-0.61-0.39-1.26-0.39-1.96V27.45
			c0-0.69,0.13-1.35,0.39-1.96c0.26-0.61,0.62-1.14,1.08-1.6c0.46-0.46,0.99-0.82,1.61-1.08c0.61-0.26,1.27-0.39,1.96-0.39h1.46
			c0.69,0,1.35,0.13,1.96,0.39c0.61,0.26,1.14,0.62,1.6,1.08c0.46,0.46,0.82,0.99,1.08,1.6c0.26,0.61,0.39,1.26,0.39,1.96v10.99
			C53.05,39.13,52.92,39.79,52.65,40.4z M51.21,27.45c0-0.46-0.09-0.88-0.26-1.28s-0.4-0.74-0.7-1.03s-0.64-0.53-1.03-0.7
			c-0.39-0.17-0.82-0.26-1.28-0.26h-1.28c-0.46,0-0.88,0.09-1.28,0.26c-0.39,0.17-0.74,0.4-1.04,0.7c-0.3,0.3-0.54,0.64-0.71,1.03
			c-0.17,0.39-0.26,0.82-0.26,1.28v10.99c0,0.46,0.09,0.88,0.26,1.28c0.17,0.39,0.41,0.74,0.71,1.04c0.3,0.3,0.65,0.54,1.04,0.71
			c0.39,0.17,0.82,0.26,1.28,0.26h1.28c0.46,0,0.88-0.09,1.28-0.26c0.39-0.17,0.74-0.41,1.03-0.71c0.3-0.3,0.53-0.65,0.7-1.04
			s0.26-0.82,0.26-1.28V27.45z"/>
		<path class="st0" d="M61.83,38.68l0.06,0.76l0.06-0.76l4.54-15.97h1.9l-6.02,20.47h-0.97l-6-20.47h1.91L61.83,38.68z"/>
		<path class="st0" d="M71.01,43.18V22.71h11.52v1.76h-9.68v7.61h7.84v1.76h-7.84v7.59h9.68v1.76H71.01z"/>
		<path class="st0" d="M95.66,43.18l-5.55-8.74h-2.53v8.74h-1.84V22.71h6.5c0.69,0,1.35,0.13,1.96,0.39s1.14,0.62,1.6,1.08
			c0.46,0.46,0.82,0.99,1.08,1.61c0.26,0.61,0.39,1.27,0.39,1.96v1.66c0,0.69-0.13,1.35-0.39,1.96c-0.26,0.61-0.62,1.15-1.08,1.61
			s-0.99,0.82-1.6,1.08s-1.26,0.39-1.96,0.39l5.55,8.74H95.66z M95.42,27.75c0-0.46-0.09-0.88-0.26-1.28
			c-0.17-0.39-0.4-0.74-0.7-1.04c-0.3-0.3-0.64-0.54-1.03-0.71c-0.39-0.17-0.82-0.26-1.28-0.26h-4.57v8.22h4.57
			c0.46,0,0.88-0.09,1.28-0.26c0.39-0.17,0.74-0.41,1.03-0.71c0.3-0.3,0.53-0.65,0.7-1.04c0.17-0.39,0.26-0.82,0.26-1.28V27.75z"/>
	</g>
	<g>
		<path class="st0" d="M59.95,67.47c-0.26,0.61-0.62,1.14-1.08,1.6s-0.99,0.82-1.6,1.08c-0.61,0.26-1.26,0.39-1.96,0.39h-1.45
			c-0.69,0-1.35-0.13-1.96-0.39c-0.61-0.26-1.15-0.62-1.61-1.08s-0.82-0.99-1.08-1.6s-0.39-1.26-0.39-1.96V54.52
			c0-0.69,0.13-1.35,0.39-1.96s0.62-1.14,1.08-1.6s0.99-0.82,1.61-1.08s1.27-0.39,1.96-0.39h1.45c0.69,0,1.35,0.13,1.96,0.39
			s1.14,0.62,1.6,1.08s0.82,0.99,1.08,1.6s0.39,1.26,0.39,1.96v10.99C60.34,66.21,60.21,66.86,59.95,67.47z M58.5,54.52
			c0-0.46-0.09-0.88-0.26-1.28c-0.17-0.39-0.4-0.74-0.7-1.03c-0.3-0.3-0.64-0.53-1.03-0.7c-0.39-0.17-0.82-0.26-1.28-0.26h-1.28
			c-0.46,0-0.88,0.09-1.28,0.26c-0.39,0.17-0.74,0.4-1.04,0.7c-0.3,0.3-0.54,0.64-0.71,1.03c-0.17,0.39-0.26,0.82-0.26,1.28v10.99
			c0,0.46,0.09,0.88,0.26,1.28c0.17,0.39,0.41,0.74,0.71,1.04c0.3,0.3,0.65,0.54,1.04,0.71c0.39,0.17,0.82,0.26,1.28,0.26h1.28
			c0.46,0,0.88-0.09,1.28-0.26s0.74-0.41,1.03-0.71s0.53-0.65,0.7-1.04c0.17-0.39,0.26-0.82,0.26-1.28V54.52z"/>
		<path class="st0" d="M75.57,67.47c-0.26,0.61-0.62,1.14-1.08,1.6s-0.99,0.82-1.6,1.08c-0.61,0.26-1.26,0.39-1.96,0.39h-1.46
			c-0.69,0-1.35-0.13-1.96-0.39c-0.61-0.26-1.15-0.62-1.61-1.08s-0.82-0.99-1.08-1.6c-0.26-0.61-0.39-1.26-0.39-1.96V54.52
			c0-0.69,0.13-1.35,0.39-1.96c0.26-0.61,0.62-1.14,1.08-1.6s0.99-0.82,1.61-1.08c0.61-0.26,1.27-0.39,1.96-0.39h1.46
			c0.69,0,1.35,0.13,1.96,0.39s1.14,0.62,1.6,1.08s0.82,0.99,1.08,1.6c0.26,0.61,0.39,1.26,0.39,1.96v0.83l-1.84,0.29v-1.11
			c0-0.46-0.09-0.88-0.26-1.28c-0.17-0.39-0.4-0.74-0.7-1.03c-0.3-0.3-0.64-0.53-1.03-0.7c-0.39-0.17-0.82-0.26-1.28-0.26h-1.28
			c-0.46,0-0.88,0.09-1.28,0.26c-0.39,0.17-0.74,0.4-1.04,0.7c-0.3,0.3-0.54,0.64-0.71,1.03c-0.17,0.39-0.26,0.82-0.26,1.28v10.99
			c0,0.46,0.09,0.88,0.26,1.28s0.41,0.74,0.71,1.04s0.65,0.54,1.04,0.71c0.39,0.17,0.82,0.26,1.28,0.26h1.28
			c0.46,0,0.88-0.09,1.28-0.26c0.39-0.17,0.74-0.41,1.03-0.71c0.3-0.3,0.53-0.65,0.7-1.04s0.26-0.82,0.26-1.28V64.4l1.84,0.3v0.81
			C75.96,66.21,75.83,66.86,75.57,67.47z"/>
		<path class="st0" d="M80.06,70.25V49.78h1.84v20.47H80.06z M90.05,70.25l-7.71-10.24l7.71-10.24h2.28l-7.87,10.24l7.87,10.24
			H90.05z"/>
	</g>
	<path class="st0" d="M45.44,75.04c0,0,1.27-0.45,2.87-0.33c0.9,0.08,2.21,0.45,3.59,0.85c2.11,0.6,4.72,1.35,7.05,1.35
		c0.58,0,1.13-0.05,1.62-0.14c1.61-0.3,3.09-1.14,4.41-2.5l-1.11-1.03c-1.09,1.11-2.3,1.8-3.58,2.04c-2.33,0.43-5.43-0.45-7.93-1.17
		c-1.56-0.45-2.87-0.82-3.92-0.91c-1.87-0.17-3.35,0.34-3.51,0.4c-0.33,0.12-0.65,0.26-0.95,0.4l-0.43,0.2V49.53h-2.02v28.05
		l2.07-1.63C44.19,75.56,44.8,75.26,45.44,75.04z"/>
	<path class="st0" d="M2.21,77.58l32.65-1.06c2.75-18.34-10.56-18.13-10.56-27.03c0-7.28,8.36-13.1,8.36-20.38
		c-2.35-0.58-5.04-2.67-9.29-3.6l-1.19-2.8l-6.13,0.09l-0.21,0.74l-0.86,2.76c-2.67,1.04-4.2,2.2-9.89,3.64
		c0,7.1,8.08,9.7,8.08,16.8C13.18,55.81,2.25,54.11,2.21,77.58z"/>
</g>
</svg>
