<?xml version="1.0" encoding="utf-8"?>
<svg version="1.1" xmlns:xlink="http://www.w3.org/1999/xlink" width="20px" height="17px" xmlns="http://www.w3.org/2000/svg">
  <g transform="matrix(1 0 0 1 -25 -14 )">
    <path d="M 19.752604166666668 13.85234375  C 19.91753472222222 14.020572916666667  20 14.219791666666667  20 14.45  L 20 16.15  C 20 16.380208333333332  19.91753472222222 16.579427083333332  19.752604166666668 16.74765625  C 19.587673611111114 16.91588541666667  19.392361111111114 17  19.166666666666668 17  L 0.8333333333333333 17  C 0.607638888888889 17  0.4123263888888889 16.91588541666667  0.24739583333333331 16.74765625  C 0.08246527777777778 16.579427083333332  0 16.380208333333332  0 16.15  L 0 14.45  C 0 14.219791666666667  0.08246527777777778 14.020572916666667  0.24739583333333331 13.85234375  C 0.4123263888888889 13.684114583333333  0.607638888888889 13.600000000000001  0.8333333333333333 13.600000000000001  L 19.166666666666668 13.600000000000001  C 19.392361111111114 13.600000000000001  19.587673611111114 13.684114583333333  19.752604166666668 13.85234375  Z M 19.752604166666668 7.0523437499999995  C 19.91753472222222 7.220572916666666  20 7.419791666666666  20 7.6499999999999995  L 20 9.350000000000001  C 20 9.580208333333331  19.91753472222222 9.779427083333331  19.752604166666668 9.947656250000001  C 19.587673611111114 10.115885416666666  19.392361111111114 10.2  19.166666666666668 10  L 0.8333333333333333 10  C 0.607638888888889 10.2  0.4123263888888889 10.115885416666666  0.24739583333333331 9.947656250000001  C 0.08246527777777778 9.779427083333331  0 9.580208333333331  0 9.350000000000001  L 0 7.6499999999999995  C 0 7.419791666666666  0.08246527777777778 7.220572916666666  0.24739583333333331 7.0523437499999995  C 0.4123263888888889 6.884114583333335  0.607638888888889 6.800000000000001  0.8333333333333333 7  L 19.166666666666668 7  C 19.392361111111114 6.800000000000001  19.587673611111114 6.884114583333335  19.752604166666668 7.0523437499999995  Z M 19.752604166666668 0.25234375000000075  C 19.91753472222222 0.4205729166666654  20 0.6197916666666654  20 0.8500000000000008  L 20 2.5500000000000003  C 20 2.780208333333332  19.91753472222222 2.979427083333332  19.752604166666668 3.1476562500000003  C 19.587673611111114 3.315885416666665  19.392361111111114 3.3999999999999995  19.166666666666668 3.3999999999999995  L 0.8333333333333333 3.3999999999999995  C 0.607638888888889 3.3999999999999995  0.4123263888888889 3.315885416666665  0.24739583333333331 3.1476562500000003  C 0.08246527777777778 2.979427083333332  0 2.780208333333332  0 2.5500000000000003  L 0 0.8500000000000008  C 0 0.6197916666666654  0.08246527777777778 0.4205729166666654  0.24739583333333331 0.25234375000000075  C 0.4123263888888889 0.08411458333333233  0.607638888888889 0  0.8333333333333333 0  L 19.166666666666668 0  C 19.392361111111114 0  19.587673611111114 0.08411458333333233  19.752604166666668 0.25234375000000075  Z " fill-rule="nonzero" fill="#ffffff" stroke="none" transform="matrix(1 0 0 1 25 14 )" />
  </g>
</svg>