<?xml version="1.0" encoding="utf-8"?>
<svg version="1.1" xmlns:xlink="http://www.w3.org/1999/xlink" width="18px" height="18px" xmlns="http://www.w3.org/2000/svg">
  <g transform="matrix(1 0 0 1 -279 -806 )">
    <path d="M 16.79296875 4.482421875  C 17.597656249999996 5.861328124999998  18 7.367187499999997  18 9  C 18 10.6328125  17.597656249999996 12.138671874999998  16.79296875 13.517578125  C 15.988281250000002 14.896484375  14.896484375 15.98828125  13.517578125 16.79296875  C 12.138671875000002 17.59765625  10.6328125 18  9 18  C 8.1328125 18  7.28125 17.875  6.4453125 17.625  C 6.90625 16.8984375  7.2109375 16.2578125  7.359375 15.703125  C 7.4296875 15.4375  7.640625 14.61328125  7.9921875 13.230468750000002  C 8.1484375 13.53515625  8.43359375 13.798828125  8.84765625 14.021484375  C 9.26171875 14.244140625  9.707031250000002 14.35546875  10.18359375 14.35546875  C 11.128906250000002 14.35546875  11.972656250000002 14.087890625  12.71484375 13.552734375  C 13.457031250000002 13.017578124999998  14.031250000000002 12.281250000000002  14.4375 11.343749999999998  C 14.84375 10.40625  15.046875 9.3515625  15.046875 8.1796875  C 15.046875 7.289062499999999  14.814453125 6.453125  14.349609375 5.671874999999999  C 13.884765625000002 4.890624999999999  13.210937500000002 4.25390625  12.328125 3.76171875  C 11.445312500000002 3.26953125  10.44921875 3.0234375  9.33984375 3.0234375  C 8.51953125 3.0234375  7.753906250000001 3.1367187499999982  7.04296875 3.363281250000001  C 6.33203125 3.589843749999999  5.728515625 3.890625000000001  5.232421875 4.265624999999999  C 4.736328125 4.640625  4.310546875000001 5.072265625  3.955078125 5.560546875000001  C 3.5996093750000004 6.048828125  3.3378906250000004 6.554687499999998  3.169921875 7.078124999999999  C 3.0019531250000004 7.6015625  2.9179687500000004 8.125  2.91796875 8.6484375  C 2.9179687500000004 9.4609375  3.0742187500000004 10.17578125  3.38671875 10.79296875  C 3.69921875 11.41015625  4.15625 11.843749999999996  4.7578125 12.09375  C 4.9921875 12.187499999999998  5.140625 12.109375  5.203125 11.859375000000002  C 5.21875 11.804687499999998  5.25 11.683593750000002  5.296875 11.49609375  C 5.34375 11.308593749999998  5.375 11.191406250000002  5.390625 11.14453125  C 5.4375 10.964843749999996  5.39453125 10.796875  5.26171875 10.640624999999998  C 4.86328125 10.1640625  4.6640625 9.574218750000002  4.6640625 8.87109375  C 4.6640625 7.69140625  5.072265625000001 6.677734374999998  5.888671875 5.830078124999999  C 6.705078125000001 4.982421874999998  7.773437499999999 4.558593750000001  9.09375 4.558593750000001  C 10.2734375 4.558593750000001  11.193359375 4.87890625  11.853515625 5.51953125  C 12.513671875000002 6.160156249999998  12.84375 6.992187499999999  12.84375 8.015625  C 12.84375 9.343749999999998  12.576171875 10.47265625  12.041015625 11.402343750000002  C 11.505859375 12.332031249999998  10.8203125 12.796875  9.984375 12.796875  C 9.5078125 12.796875  9.125000000000002 12.626953124999998  8.8359375 12.287109375  C 8.546875 11.947265625000002  8.45703125 11.539062499999998  8.56640625 11.062499999999998  C 8.62890625 10.7890625  8.732421875 10.423828125  8.876953125 9.966796875  C 9.021484375000002 9.509765625  9.138671875 9.107421875  9.228515625 8.759765625  C 9.318359375000002 8.412109375  9.36328125 8.117187499999998  9.36328125 7.875  C 9.36328125 7.484374999999999  9.2578125 7.160156249999998  9.046875 6.902343749999999  C 8.8359375 6.644531249999998  8.53515625 6.515624999999999  8.14453125 6.515624999999999  C 7.660156250000001 6.515624999999999  7.250000000000001 6.738281249999998  6.9140625 7.183593749999999  C 6.578125 7.62890625  6.41015625 8.18359375  6.41015625 8.84765625  C 6.41015625 9.41796875  6.5078125 9.89453125  6.703125 10.277343750000002  L 5.54296875 15.17578125  C 5.410156250000001 15.72265625  5.359375 16.4140625  5.390625 17.25  C 3.7812499999999996 16.5390625  2.48046875 15.44140625  1.48828125 13.95703125  C 0.49609374999999994 12.472656249999998  0 10.820312499999998  0 9  C 0 7.367187499999997  0.40234374999999994 5.861328124999998  1.20703125 4.482421875  C 2.01171875 3.103515625  3.1035156250000004 2.0117187499999982  4.482421875 1.2070312499999993  C 5.861328125 0.40234374999999845  7.367187500000001 0  9 0  C 10.6328125 0  12.138671875000002 0.40234374999999845  13.517578125 1.2070312499999993  C 14.896484375 2.0117187499999982  15.988281250000002 3.103515625  16.79296875 4.482421875  Z " fill-rule="nonzero" fill="#bd81f3" stroke="none" transform="matrix(1 0 0 1 279 806 )" />
  </g>
</svg>