<?xml version="1.0" encoding="utf-8"?>
<svg version="1.1" xmlns:xlink="http://www.w3.org/1999/xlink" width="14px" height="27px" xmlns="http://www.w3.org/2000/svg">
  <g transform="matrix(1 0 0 1 -15 -904 )">
    <path d="M 13.805139186295504 16.438058035714285  C 13.935046395431836 16.88002232142857  14.000000000000004 17.352120535714285  14 17.854352678571427  C 14.000000000000004 19.391183035714285  13.502855103497504 20.714564732142858  12.508565310492505 21.824497767857146  C 11.514275517487508 22.93443080357143  10.222698072805139 23.61997767857143  8.633832976445396 23.881138392857142  L 8.633832976445396 26.517857142857142  C 8.633832976445396 26.658482142857142  8.588865096359743 26.773995535714285  8.498929336188437 26.864397321428573  C 8.40899357601713 26.954799107142858  8.294075660242683 27  8.154175588865096 27  L 6.130620985010706 27  C 6.000713775874376 27  5.888294075660243 26.95228794642857  5.793361884368308 26.856863839285715  C 5.698429693076374 26.761439732142858  5.650963597430406 26.648437500000004  5.650963597430406 26.517857142857142  L 5.650963597430406 23.881138392857142  C 4.991434689507495 23.790736607142858  4.35438972162741 23.635044642857142  3.73982869379015 23.4140625  C 3.1252676659528906 23.193080357142858  2.618129907209137 22.969587053571427  2.2184154175588864 22.743582589285715  C 1.8187009279086368 22.517578125  1.4489650249821557 22.276506696428573  1.1092077087794432 22.020368303571427  C 0.7694503925767311 21.764229910714285  0.5371163454675233 21.575892857142854  0.41220556745182013 21.455357142857146  C 0.28729478943611714 21.334821428571427  0.19985724482512496 21.244419642857146  0.14989293361884368 21.184151785714285  C -0.019985724482512422 20.973214285714285  -0.029978586723768737 20.767299107142858  0.11991434689507495 20.56640625  L 1.6638115631691648 18.532366071428573  C 1.7337615988579589 18.431919642857142  1.8486795146324058 18.371651785714285  2.0085653104925054 18.3515625  C 2.158458244111349 18.33147321428571  2.2783725910064243 18.376674107142854  2.3683083511777303 18.487165178571427  L 2.398286937901499 18.517299107142854  C 3.5274803711634553 19.51171875  4.741613133476089 20.13950892857143  6.0406852248394 20.400669642857146  C 6.410421127765882 20.481026785714285  6.780157030692363 20.521205357142854  7.149892933618843 20.521205357142854  C 7.959314775160599 20.521205357142854  8.671306209850107 20.305245535714285  9.285867237687366 19.873325892857146  C 9.900428265524626 19.441406249999996  10.207708779443255 18.828683035714285  10.207708779443255 18.03515625  C 10.207708779443255 17.753906249999996  10.132762312633833 17.48772321428571  9.98286937901499 17.236607142857146  C 9.832976445396145 16.98549107142857  9.665596002855104 16.77455357142857  9.480728051391862 16.603794642857146  C 9.295860099928623 16.43303571428571  9.00356887937188 16.244698660714285  8.603854389721628 16.038783482142854  C 8.204139900071379 15.832868303571425  7.874375446109921 15.67215401785714  7.614561027837259 15.556640625  C 7.354746609564598 15.441127232142856  6.955032119914346 15.277901785714286  6.41541755888651 15.066964285714286  C 6.025695931477515 14.906249999999998  5.718415417558886 14.780691964285714  5.493576017130621 14.690290178571427  C 5.2687366167023555 14.599888392857144  4.9614561027837265 14.466796874999998  4.571734475374733 14.291015625  C 4.182012847965739 14.115234374999998  3.8697359029264815 13.959542410714286  3.6349036402569594 13.823939732142856  C 3.4000713775874383 13.688337053571427  3.1177730192719486 13.51004464285714  2.7880085653104927 13.2890625  C 2.4582441113490363 13.068080357142856  2.190935046395432 12.854631696428571  1.9860813704496787 12.648716517857142  C 1.7812276945039258 12.442801339285712  1.5638829407566026 12.196707589285714  1.3340471092077086 11.910435267857142  C 1.1042112776588153 11.62416294642857  0.9268379728765168 11.332868303571427  0.8019271948608138 11.036551339285714  C 0.6770164168451107 10.740234374999998  0.5720913633119201 10.406249999999998  0.487152034261242 10.034598214285714  C 0.402212705210564 9.662946428571429  0.35974304068522484 9.271205357142856  0.35974304068522484 8.859375  C 0.35974304068522484 7.4732142857142865  0.8493932905067807 6.257812499999998  1.8286937901498928 5.2131696428571415  C 2.8079942897930055 4.168526785714282  4.082084225553177 3.495535714285714  5.650963597430406 3.194196428571428  L 5.650963597430406 0.4821428571428584  C 5.650963597430406 0.351562499999998  5.698429693076374 0.23856026785714257  5.793361884368308 0.14313616071428614  C 5.888294075660243 0.04771205357142971  6.000713775874376 0  6.130620985010706 0  L 8.154175588865096 0  C 8.294075660242683 0  8.40899357601713 0.04520089285714157  8.498929336188437 0.13560267857142771  C 8.588865096359743 0.22600446428571386  8.633832976445396 0.34151785714285443  8.633832976445396 0.4821428571428584  L 8.633832976445396 3.133928571428572  C 9.203426124197001 3.194196428571428  9.75553176302641 3.3097098214285685  10.290149892933618 3.48046875  C 10.824768022840829 3.651227678571429  11.259457530335476 3.819475446428572  11.59421841541756 3.985212053571428  C 11.928979300499645 4.1509486607142865  12.24625267665953 4.3392857142857135  12.546038543897216 4.5502232142857135  C 12.845824411134904 4.7611607142857135  13.0406852248394 4.906808035714282  13.130620985010706 4.987165178571428  C 13.220556745182012 5.06752232142857  13.295503211991434 5.137834821428572  13.355460385438972 5.198102678571428  C 13.52533904354033 5.37890625  13.550321199143468 5.569754464285713  13.430406852248394 5.770647321428572  L 12.21627408993576 7.9704241071428585  C 12.136331192005711 8.12109375  12.021413276231264 8.201450892857142  11.871520342612419 8.211495535714286  C 11.731620271234833 8.241629464285714  11.596716630977873 8.206473214285714  11.46680942184154 8.106026785714286  C 11.436830835117773 8.075892857142858  11.364382583868666 8.015625  11.249464668094218 7.9252232142857135  C 11.134546752319775 7.834821428571428  10.939685938615277 7.701729910714282  10.664882226980728 7.5259486607142865  C 10.390078515346183 7.350167410714284  10.097787294789438 7.189453124999999  9.788008565310491 7.043805803571428  C 9.47822983583155 6.898158482142857  9.105995717344754 6.767578124999999  8.671306209850107 6.6520647321428585  C 8.23661670235546 6.536551339285712  7.809421841541756 6.4787946428571415  7.389721627408994 6.4787946428571415  C 6.440399714489651 6.4787946428571415  5.665952890792291 6.694754464285712  5.0663811563169165 7.1266741071428585  C 4.466809421841542 7.558593749999999  4.167023554603855 8.116071428571427  4.167023554603855 8.799107142857142  C 4.167023554603855 9.060267857142856  4.209493219129194 9.301339285714285  4.294432548179872 9.522321428571427  C 4.379371877230549 9.743303571428568  4.526766595289079 9.951729910714286  4.736616702355461 10.147600446428573  C 4.946466809421842 10.343470982142858  5.143825838686653 10.509207589285714  5.3286937901498925 10.644810267857142  C 5.513561741613135 10.780412946428573  5.793361884368308 10.936104910714285  6.168094218415417 11.111886160714286  C 6.542826552462526 11.287667410714283  6.845110635260529 11.423270089285714  7.074946466809422 11.518694196428573  C 7.304782298358315 11.614118303571429  7.654532476802284 11.752232142857142  8.124197002141328 11.933035714285714  C 8.65381870092791 12.13392857142857  9.058529621698789 12.29213169642857  9.338329764453961 12.407645089285714  C 9.618129907209138 12.523158482142858  9.997858672376873 12.698939732142856  10.477516059957173 12.934988839285714  C 10.957173447537473 13.171037946428571  11.334403997144896 13.384486607142856  11.609207708779444 13.575334821428573  C 11.884011420413993 13.766183035714285  12.193790149892935 14.017299107142856  12.538543897216273 14.328683035714286  C 12.883297644539617 14.640066964285714  13.148108493932908 14.958984374999998  13.332976445396145 15.285435267857144  C 13.517844396859386 15.611886160714285  13.675231977159171 15.996093749999996  13.805139186295504 16.438058035714285  Z " fill-rule="nonzero" fill="#000000" stroke="none" transform="matrix(1 0 0 1 15 904 )" />
  </g>
</svg>