<?xml version="1.0" encoding="utf-8"?>
<svg version="1.1" xmlns:xlink="http://www.w3.org/1999/xlink" width="25px" height="27px" xmlns="http://www.w3.org/2000/svg">
  <g transform="matrix(1 0 0 1 -9 -947 )">
    <path d="M 24.371603260869566 11.940308087291399  C 24.790534420289855 12.344672657252888  25 12.864569961489087  25 13.5  C 25 14.123876765083441  24.790534420289855 14.649550706033375  24.371603260869566 15.077021822849808  L 13.31521739130435 26.358793324775352  C 12.873641304347828 26.786264441591786  12.358469202898553 27  11.769701086956522 27  C 11.192255434782608 27  10.682744565217392 26.786264441591786  10.24116847826087 26.358793324775352  L 8.967391304347826 25.059050064184852  C 8.53713768115942 24.62002567394095  8.322010869565217 24.09435173299101  8.322010869565217 23.482028241335044  C 8.322010869565217 22.869704749679077  8.53713768115942 22.34403080872914  8.967391304347826 21.905006418485236  L 13.943614130434783 16.827342747111683  L 1.987092391304348 16.827342747111683  C 1.398324275362319 16.827342747111683  0.9199501811594204 16.6107188703466  0.5519701086956522 16.17747111681643  C 0.18399003623188404 15.744223363286263  0 15.221437740693196  0 14.609114249037228  L 0 12.390885750962772  C 0 11.778562259306803  0.18399003623188404 11.255776636713737  0.5519701086956522 10.822528883183569  C 0.9199501811594204 10.389281129653401  1.398324275362319 10.17265725288832  1.987092391304348 10.17265725288832  L 13.943614130434783 10.17265725288832  L 8.967391304347826 5.077663671373557  C 8.53713768115942 4.661745827984595  8.322010869565217 4.141848523748397  8.322010869565217 3.517971758664955  C 8.322010869565217 2.894094993581516  8.53713768115942 2.3741976893453147  8.967391304347826 1.9582798459563535  L 10.24116847826087 0.6585365853658542  C 10.671422101449277 0.21951219512194942  11.180932971014492 0  11.769701086956522 0  C 12.369791666666668 0  12.884963768115941 0.21951219512194942  13.31521739130435 0.6585365853658542  L 24.371603260869566 11.940308087291399  Z " fill-rule="nonzero" fill="#000000" stroke="none" transform="matrix(1 0 0 1 9 947 )" />
  </g>
</svg>