<?xml version="1.0" encoding="utf-8"?>
<svg version="1.1" xmlns:xlink="http://www.w3.org/1999/xlink" width="29px" height="31px" xmlns="http://www.w3.org/2000/svg">
  <g transform="matrix(1 0 0 1 -6 -745 )">
    <path d="M 14.5 29.61607142857143  C 14.685897435897438 29.61607142857143  14.778846153846157 29.523809523809526  14.778846153846153 29.33928571428571  C 14.778846153846157 29.154761904761905  14.685897435897438 29.0625  14.5 29.0625  C 13.814503205128206 29.0625  13.224859775641027 28.817429315476186  12.731069711538462 28.32728794642857  C 12.237279647435898 27.837146577380953  11.990384615384615 27.251860119047617  11.990384615384615 26.571428571428573  C 11.990384615384615 26.386904761904763  11.897435897435898 26.294642857142858  11.711538461538462 26.294642857142858  C 11.525641025641027 26.294642857142858  11.432692307692307 26.386904761904763  11.432692307692307 26.571428571428573  C 11.432692307692307 27.413318452380953  11.731870993589745 28.131231398809526  12.330228365384615 28.72516741071429  C 12.928585737179489 29.319103422619047  13.65184294871795 29.61607142857143  14.5 29.61607142857143  Z M 7.8076923076923075 9.964285714285714  C 7.8076923076923075 16.099702380952383  6.262419871794872 20.897321428571427  3.171875 24  L 25.828125 24  C 22.73758012820513 20.897321428571427  21.19230769230769 16.099702380952383  21.19230769230769 9.964285714285714  C 21.19230769230769 9.37611607142857  21.052884615384613 8.77064732142857  20.774038461538463 8.147879464285714  C 20.49519230769231 7.525111607142857  20.094350961538463 6.931175595238092  19.571514423076923 6.36607142857143  C 19.048677884615387 5.800967261904761  18.34284855769231 5.33677455357143  17.45402644230769 4.97349330357143  C 16.565204326923077 4.61021205357143  15.580528846153847 4.42857142857143  14.5 4.42857142857143  C 13.419471153846155 4.42857142857143  12.434795673076923 4.61021205357143  11.545973557692307 4.97349330357143  C 10.657151442307693 5.33677455357143  9.951322115384615 5.800967261904761  9.428485576923077 6.36607142857143  C 8.905649038461538 6.931175595238092  8.504807692307693 7.525111607142857  8.225961538461538 8.147879464285714  C 7.947115384615385 8.77064732142857  7.8076923076923075 9.37611607142857  7.8076923076923075 9.964285714285714  Z M 27.4140625 22.834821428571427  C 27.890424679487182 23.365327380952383  28.419070512820515 23.872767857142858  29 24.357142857142858  C 29.000000000000007 24.956845238095237  28.779246794871796 25.475818452380956  28.337740384615387 25.9140625  C 27.896233974358978 26.352306547619044  27.373397435897438 26.571428571428573  26.76923076923077 26.571428571428573  L 18.961538461538463 26.571428571428573  C 18.961538461538463 27.793898809523814  18.525841346153847 28.837611607142858  17.654447115384613 29.70256696428571  C 16.783052884615387 30.56752232142857  15.731570512820515 31  14.5 31  C 13.268429487179489 31  12.216947115384615 30.56752232142857  11.345552884615385 29.70256696428571  C 10.474158653846155 28.837611607142858  10.038461538461538 27.793898809523814  10.038461538461538 26.571428571428573  L 2.230769230769231 26.571428571428573  C 1.6266025641025643 26.571428571428573  1.1037660256410258 26.352306547619044  0.6622596153846153 25.9140625  C 0.2207532051282052 25.475818452380956  0 24.956845238095237  0 24.357142857142858  C 0.5809294871794873 23.872767857142858  1.1095753205128207 23.365327380952383  1.5859375 22.834821428571427  C 2.0622996794871797 22.304315476190474  2.5560897435897436 21.615234375  3.067307692307692 20.767578125  C 3.5785256410256414 19.919921875  4.0113181089743595 19.00595238095238  4.365685096153847 18.025669642857142  C 4.720052083333334 17.045386904761905  5.0105168269230775 15.857514880952383  5.2370793269230775 14.46205357142857  C 5.4636418269230775 13.066592261904761  5.5769230769230775 11.567336309523805  5.5769230769230775 9.964285714285714  C 5.5769230769230775 8.211309523809522  6.2566105769230775 6.582310267857143  7.615985576923077 5.07728794642857  C 8.975360576923077 3.572265625  10.758814102564102 2.6582961309523787  12.966346153846155 2.3353794642857135  C 12.873397435897436 2.1162574404761876  12.826923076923077 1.891369047619048  12.826923076923077 1.6607142857142867  C 12.826923076923077 1.199404761904761  12.989583333333334 0.8072916666666655  13.314903846153845 0.484375  C 13.640224358974361 0.16145833333333448  14.03525641025641 0  14.5 0  C 14.964743589743591 0  15.359775641025644 0.16145833333333448  15.685096153846153 0.484375  C 16.010416666666668 0.8072916666666655  16.173076923076923 1.199404761904761  16.173076923076923 1.6607142857142867  C 16.173076923076923 1.891369047619048  16.126602564102566 2.1162574404761876  16.033653846153847 2.3353794642857135  C 18.2411858974359 2.6582961309523787  20.024639423076923 3.572265625  21.384014423076923 5.07728794642857  C 22.743389423076923 6.582310267857143  23.423076923076923 8.211309523809522  23.423076923076923 9.964285714285714  C 23.423076923076923 11.567336309523805  23.536358173076923 13.066592261904761  23.762920673076923 14.46205357142857  C 23.989483173076923 15.857514880952383  24.279947916666668 17.045386904761905  24.634314903846153 18.025669642857142  C 24.988681891025646 19.00595238095238  25.421474358974358 19.919921875  25.93269230769231 20.767578125  C 26.44391025641026 21.615234375  26.93770032051283 22.304315476190474  27.4140625 22.834821428571427  Z " fill-rule="nonzero" fill="#000000" stroke="none" transform="matrix(1 0 0 1 6 745 )" />
  </g>
</svg>