<?xml version="1.0" encoding="utf-8"?>
<svg version="1.1" xmlns:xlink="http://www.w3.org/1999/xlink" width="21px" height="18px" xmlns="http://www.w3.org/2000/svg">
  <g transform="matrix(1 0 0 1 -340 -807 )">
    <path d="M 18.52157360406091 2.840625  C 19.34771573604061 2.7468749999999997  20.173857868020306 2.512499999999997  21 2.1375  C 20.404822335025383 3.056249999999998  19.68527918781726 3.8390625  18.841370558375633 4.4859375  C 18.8502538071066 4.617187499999999  18.85469543147208 4.814062499999999  18.85469543147208 5.0765625  C 18.85469543147208 6.295312499999998  18.685913705583758 7.511718749999998  18.348350253807105 8.725781249999999  C 18.01078680203046 9.939843749999998  17.497779187817258 11.1046875  16.809327411167512 12.2203125  C 16.120875634517766 13.3359375  15.301395939086296 14.32265625  14.350888324873097 15.180468750000001  C 13.400380710659899 16.03828125  12.254441624365482 16.72265625  10.913071065989849 17.23359375  C 9.571700507614214 17.744531249999998  8.137055837563453 18  6.6091370558375635 18  C 4.2017766497461935 18  1.998730964467005 17.3203125  0 15.9609375  C 0.3109137055837565 15.998437500000001  0.6573604060913707 16.017187500000002  1.0393401015228427 16.017187500000002  C 3.0380710659898487 16.017187500000002  4.819162436548224 15.370312499999999  6.38261421319797 14.0765625  C 5.449873096446701 14.057812499999999  4.614847715736041 13.755468749999997  3.87753807106599 13.16953125  C 3.1402284263959395 12.583593749999999  2.6338832487309647 11.835937499999998  2.358502538071066 10.926562500000001  C 2.6516497461928936 10.9734375  2.9225888324873104 10.996875000000001  3.171319796954315 10.996875000000001  C 3.553299492385787 10.996875000000001  3.9308375634517763 10.9453125  4.303934010152284 10.8421875  C 3.3090101522842645 10.626562499999999  2.48508883248731 10.10390625  1.8321700507614214 9.274218750000001  C 1.179251269035533 8.444531249999999  0.8527918781725891 7.48125  0.8527918781725887 6.384375  L 0.8527918781725887 6.328125  C 1.4568527918781728 6.684374999999999  2.1053299492385786 6.876562499999999  2.7982233502538074 6.9046875  C 2.2119289340101522 6.492187499999998  1.7455583756345177 5.953124999999999  1.3991116751269037 5.2875  C 1.0526649746192893 4.6218749999999975  0.8794416243654822 3.899999999999998  0.8794416243654822 3.121875  C 0.8794416243654822 2.296874999999999  1.0748730964467006 1.5328125000000008  1.465736040609137 0.8296875000000008  C 2.5406091370558377 2.226562499999999  3.848667512690356 3.3445312499999997  5.3899111675126905 4.18359375  C 6.931154822335026 5.022656250000001  8.581218274111675 5.489062499999999  10.34010152284264 5.5828125  C 10.269035532994925 5.226562499999998  10.233502538071066 4.879687499999998  10.233502538071066 4.5421875  C 10.233502538071066 3.285937499999997  10.653236040609137 2.21484375  11.492703045685278 1.3289062500000004  C 12.33217005076142 0.4429687500000008  13.347081218274113 0  14.53743654822335 0  C 15.781091370558379 0  16.82931472081218 0.4781250000000008  17.68210659898477 1.4343750000000004  C 18.6503807106599 1.2374999999999996  19.560913705583754 0.8718750000000004  20.413705583756343 0.3375000000000008  C 20.08502538071066 1.4156249999999975  19.454314720812185 2.25  18.52157360406091 2.840625  Z " fill-rule="nonzero" fill="#bd81f3" stroke="none" transform="matrix(1 0 0 1 340 807 )" />
  </g>
</svg>